<svg width="701" height="701" viewBox="0 0 701 701" fill="none" xmlns="http://www.w3.org/2000/svg">
<path d="M522.679 0.0157064C518.512 -0.078043 514.611 2.05731 512.449 5.61984C461.971 88.8332 374.663 182.26 227.169 210.62C133.867 228.563 60.8495 269.349 4.47613 318.147C-0.3936 322.365 -0.924932 329.725 3.29384 334.6C7.51264 339.47 14.8772 340.001 19.7472 335.782C73.4552 289.287 142.493 250.678 231.587 233.542C386.774 203.698 479.734 104.578 532.414 17.7288C535.768 12.2184 534.013 5.03093 528.492 1.68747C526.737 0.624974 524.732 0.0416 522.679 0L522.679 0.0157064ZM565.335 6.07824C512.313 103.005 413.415 222.345 235.961 256.465C133.633 276.142 58.1347 326.038 3.69467 382.558C-0.774131 387.204 -0.628262 394.589 4.01238 399.053C8.65824 403.522 16.0436 403.376 20.5124 398.735C72.2524 345.011 143.116 298.09 240.379 279.386C426.179 243.657 530.766 117.893 585.792 17.2792C588.886 11.6281 586.818 4.5396 581.167 1.44053C573.87 -1.6532 568.381 1.09157 565.329 6.0656L565.335 6.07824ZM630.433 58.3489C611.24 58.3489 595.433 74.1556 595.433 93.3489C595.433 112.542 611.24 128.349 630.433 128.349C649.627 128.349 665.433 112.542 665.433 93.3489C665.433 74.1556 649.627 58.3489 630.433 58.3489ZM630.433 81.6822C637.017 81.6822 642.1 86.7656 642.1 93.3489C642.1 99.9322 637.017 105.016 630.433 105.016C623.85 105.016 618.767 99.9322 618.767 93.3489C618.767 86.7656 623.85 81.6822 630.433 81.6822ZM560.433 128.349C541.24 128.349 525.433 144.156 525.433 163.349C525.433 182.542 541.24 198.349 560.433 198.349C579.627 198.349 595.433 182.542 595.433 163.349C595.433 144.156 579.627 128.349 560.433 128.349ZM560.433 151.682C567.017 151.682 572.1 156.766 572.1 163.349C572.1 169.932 567.017 175.016 560.433 175.016C553.85 175.016 548.767 169.932 548.767 163.349C548.767 156.766 553.85 151.682 560.433 151.682ZM665.433 151.682C646.24 151.682 630.433 167.489 630.433 186.682C630.433 205.876 646.24 221.682 665.433 221.682C684.627 221.682 700.433 205.876 700.433 186.682C700.433 167.489 684.627 151.682 665.433 151.682ZM665.433 175.016C672.017 175.016 677.1 180.099 677.1 186.682C677.1 193.266 672.017 198.349 665.433 198.349C658.85 198.349 653.767 193.266 653.767 186.682C653.767 180.099 658.85 175.016 665.433 175.016ZM513.767 221.682C423.699 221.682 350.433 294.948 350.433 385.016C350.433 407.985 355.251 429.818 363.855 449.661C237.016 502.88 159.735 601.088 115.068 682.741C111.974 688.392 114.042 695.481 119.693 698.58C125.344 701.673 132.433 699.606 135.532 693.955C188.553 597.028 287.452 477.688 464.905 443.568C567.233 423.891 642.732 373.995 697.172 317.475C701.641 312.829 701.495 305.443 696.854 300.98C692.208 296.511 684.823 296.657 680.354 301.298C674.766 307.1 668.901 312.792 662.854 318.412C637.313 261.48 580.105 221.71 513.761 221.71L513.767 221.682ZM513.767 245.016C573.428 245.016 624.209 282.141 644.397 334.589C597.033 373.761 536.944 405.928 460.491 420.63C433.855 425.75 408.939 432.766 385.548 441.25C378.006 424.042 373.767 405.042 373.767 385.016C373.767 307.557 436.308 245.016 513.767 245.016ZM292.1 303.349C272.907 303.349 257.1 319.156 257.1 338.349C257.1 357.542 272.907 373.349 292.1 373.349C311.293 373.349 327.1 357.542 327.1 338.349C327.1 319.156 311.293 303.349 292.1 303.349ZM292.1 326.682C298.683 326.682 303.767 331.766 303.767 338.349C303.767 344.932 298.683 350.016 292.1 350.016C285.517 350.016 280.433 344.932 280.433 338.349C280.433 331.766 285.517 326.682 292.1 326.682ZM686.567 361.589C684.556 361.98 682.686 362.891 681.145 364.23C627.437 410.724 558.399 449.334 469.305 466.47C314.118 496.314 221.158 595.434 168.478 682.283C165.124 687.793 166.879 694.981 172.4 698.324C177.91 701.678 185.098 699.923 188.441 694.408C238.92 611.194 326.228 517.768 473.721 489.408C567.024 471.465 640.041 430.678 696.415 381.881C701.284 377.662 701.816 370.303 697.597 365.428C694.868 362.271 690.665 360.813 686.571 361.599L686.567 361.589ZM58.7667 431.677C39.5733 431.677 23.7667 447.484 23.7667 466.677C23.7667 485.87 39.5733 501.677 58.7667 501.677C77.96 501.677 93.7667 485.87 93.7667 466.677C93.7667 447.484 77.96 431.677 58.7667 431.677ZM210.433 431.677C191.24 431.677 175.433 447.484 175.433 466.677C175.433 485.87 191.24 501.677 210.433 501.677C229.627 501.677 245.433 485.87 245.433 466.677C245.433 447.484 229.627 431.677 210.433 431.677ZM58.7667 455.01C65.35 455.01 70.4333 460.094 70.4333 466.677C70.4333 473.26 65.35 478.344 58.7667 478.344C52.1833 478.344 47.1 473.26 47.1 466.677C47.1 460.094 52.1833 455.01 58.7667 455.01ZM210.433 455.01C217.017 455.01 222.1 460.094 222.1 466.677C222.1 473.26 217.017 478.344 210.433 478.344C203.85 478.344 198.767 473.26 198.767 466.677C198.767 460.094 203.85 455.01 210.433 455.01Z" fill="black"/>
</svg>
