<svg width="537" height="669" viewBox="0 0 537 669" fill="none" xmlns="http://www.w3.org/2000/svg">
<path d="M454.798 365.334C502.178 329.433 533.158 277.141 535.891 218.614C541.355 102.322 434.755 3.98764 298.078 0.0809726C167.786 -3.03876 57.5314 84.373 51.1581 195.974C50.2466 212.365 51.1581 228.756 54.804 244.365C56.6269 251.391 54.804 259.193 50.2466 265.438C38.4029 284.168 12.8866 323.974 1.95463 356.75C-5.3371 379.386 18.356 380.162 69.376 381.724L74.8447 453.526C75.7562 505.037 105.823 527.666 169.605 520.646L187.829 519.865C197.85 519.084 206.053 526.11 205.141 534.693L245.417 668.64L481.657 583.192C481.657 583.192 438.397 483.186 434.755 445.725C423.037 393.704 454.802 365.34 454.802 365.34L454.798 365.334ZM419.085 323.246C343.945 388.94 293.126 320.257 293.126 320.257C282.027 327.517 267.079 325.809 254.271 324.1C239.755 322.392 225.241 316.84 216.271 304.887C211.574 298.481 209.011 291.226 208.157 283.538C170.157 298.48 115.506 287.809 97.9956 248.1C84.7612 218.642 90.3133 162.704 122.334 145.627C124.897 126.84 130.017 110.19 145.818 97.8044C161.616 85.8514 180.829 79.0178 200.897 80.2991C228.225 48.7058 281.594 44.8618 318.741 60.6591C339.236 50.8414 360.585 52.1175 381.934 61.5133C405.846 71.7581 421.642 84.5706 429.757 105.492C468.612 121.716 486.544 160.143 481.85 202.413C480.142 218.637 476.725 234.435 467.334 246.82C470.319 281.831 450.253 311.721 419.085 323.246Z" fill="black"/>
<path d="M303.891 85.6516C247.646 85.6516 202.047 131.25 202.047 187.496C202.047 243.741 247.646 289.34 303.891 289.34C360.142 289.34 405.735 243.741 405.735 187.496C405.741 131.25 360.142 85.6516 303.891 85.6516ZM303.891 266.918C260.027 266.918 224.465 231.356 224.465 187.492C224.465 169.617 230.371 153.117 240.334 139.846L351.615 250.992C338.329 260.992 321.803 266.918 303.891 266.918ZM367.298 235.34L256.043 124.089C269.351 114.026 285.929 108.062 303.893 108.062C347.762 108.062 383.319 143.625 383.319 187.489C383.319 205.458 377.356 222.032 367.298 235.34Z" fill="black"/>
<path d="M347.665 208.188H352.998V190.953H330.41L347.665 208.188Z" fill="black"/>
<path d="M239.478 208.188H300.171L282.917 190.953H239.479L239.478 208.188Z" fill="black"/>
<path d="M355.985 190.948H370.704V208.182H355.985V190.948Z" fill="black"/>
<path d="M347.918 151.654C344.173 151.654 343.449 151.696 340.314 151.753C342.017 139.758 339.074 132.237 339.074 132.237C333.179 114.852 316.064 116.691 316.064 116.691C306.1 116.691 298.017 124.769 298.017 134.737C298.017 144.701 306.033 152.805 315.996 152.805C315.517 154.212 315.194 155.738 315.194 157.305C315.194 164.951 321.392 171.123 329.043 171.123H348.054C352.45 171.123 356.012 174.659 356.012 179.05C356.012 180.831 355.986 187.94 355.986 187.94H370.705V174.476C370.705 161.508 360.705 151.654 347.918 151.654Z" fill="black"/>
</svg>
