<svg width="674" height="539" viewBox="0 0 674 539" fill="none" xmlns="http://www.w3.org/2000/svg">
<path d="M553.324 47.0808C518.501 35.2111 487.605 36.2319 461.521 50.1017C428.667 67.591 413.073 100.508 407.412 115.596C393.557 110.862 358.011 90.6896 325.235 5.56964C323.511 1.09044 318.49 -1.13863 314.006 0.580041C309.526 2.30404 307.292 7.33005 309.016 11.8092C310.959 16.8614 312.922 21.627 314.896 26.2679C299.923 29.9762 290.282 36.5543 284.172 42.9972C283.073 37.5284 282.709 34.7003 282.698 34.6118C282.125 29.8514 277.745 26.4139 273.058 27.0024C268.297 27.565 264.886 31.867 265.443 36.6222C265.594 37.9138 269.375 68.8928 293.328 132.106C300.526 151.096 312.391 166.7 323.864 181.794C351.984 218.778 372.302 245.502 314.567 302.362C271.479 344.8 240.713 322.466 198.141 291.539C162.938 265.977 123.062 236.993 70.0995 248.154C-14.2392 265.946 0.766133 430.087 1.4488 437.074C1.88629 441.558 5.6676 444.923 10.0895 444.923C10.3707 444.923 10.6572 444.907 10.9436 444.881C15.7196 444.412 19.2144 440.162 18.751 435.386C18.7249 435.136 18.3447 430.959 18.001 424.105C22.225 425.699 27.251 426.939 32.9223 426.939C34.2192 426.939 35.542 426.871 36.8911 426.735C44.9119 425.933 51.7924 423.814 57.0684 421.704C57.782 426.626 58.6258 431.663 59.782 436.944C60.8081 441.632 65.4383 444.616 70.131 443.574C74.8184 442.548 77.7872 437.918 76.7612 433.226C65.7352 382.908 78.0269 349.518 95.1879 343.647C107.662 339.36 122.095 350.798 132.849 373.45C152.339 414.502 223.095 538.356 365.569 538.356C379.46 538.356 394.039 537.174 409.304 534.632C545.664 511.914 624.237 432.846 664.037 278.272C694.007 161.918 655.72 81.9789 553.313 47.0855L553.324 47.0808ZM647.22 273.934C609.36 420.934 535.106 496.054 406.447 517.494C246.593 544.134 168.607 408.276 148.54 366.001C130.78 328.6 106.425 321.433 89.5561 327.209C69.1188 334.198 52.0041 362.516 55.7121 409.688C51.1288 411.792 44.1236 414.37 35.7228 415.219C28.1707 415.984 21.7175 413.464 17.5348 411.182C16.6285 366.876 21.3056 276.209 73.6655 265.169C119.04 255.601 154.056 281.024 187.905 305.606C229.817 336.049 273.156 367.528 326.732 314.752C395.357 247.164 366.029 208.591 337.67 171.286C326.946 157.176 315.852 142.588 309.555 125.963C298.039 95.5669 291.331 72.8229 287.498 57.6295C291.045 51.4055 299.706 41.4108 319.618 37.0202C363.544 132.827 410.951 134.4 413.102 134.411L419.779 134.442L421.544 128.005C421.659 127.572 433.852 84.426 469.795 65.3793C491.431 53.9157 517.65 53.296 547.707 63.5356C641.462 95.4782 674.936 166.265 647.207 273.936L647.22 273.934Z" fill="black"/>
<path d="M428.484 460.427C325.937 485.496 285.884 452.969 285.271 452.464C281.682 449.323 276.234 449.678 273.062 453.245C269.88 456.839 270.208 462.328 273.797 465.516C275.141 466.703 299.318 487.36 356.672 487.36C377.469 487.36 402.614 484.641 432.614 477.297C437.276 476.162 440.13 471.459 438.989 466.797C437.854 462.141 433.135 459.245 428.489 460.428L428.484 460.427Z" fill="black"/>
<path d="M495.311 81.9475C468.551 83.6454 460.639 111.661 460.316 112.854C459.061 117.469 461.78 122.198 466.384 123.479C467.155 123.693 467.936 123.797 468.702 123.797C472.493 123.797 475.988 121.276 477.071 117.453C477.274 116.75 482.123 100.203 496.415 99.2919C501.197 98.9898 504.837 94.8596 504.53 90.0731C504.238 85.2814 500.264 81.5778 495.311 81.9475Z" fill="black"/>
</svg>
