<svg width="373" height="643" viewBox="0 0 373 643" fill="none" xmlns="http://www.w3.org/2000/svg">
<path fill-rule="evenodd" clip-rule="evenodd" d="M249.385 62.8013C249.385 97.384 221.251 125.52 186.667 125.52C152.084 125.52 123.948 97.384 123.948 62.8013C123.948 28.2186 152.084 0.0826416 186.667 0.0826416C221.249 0.0826416 249.385 28.2186 249.385 62.8013ZM181.443 73.0465V114.801C183.161 114.973 184.906 115.067 186.661 115.067C188.427 115.067 190.172 114.973 191.89 114.801V73.0464C191.89 70.161 194.224 67.8225 197.109 67.8172L211.104 67.7912H211.109C211.25 67.7912 211.422 67.8016 211.588 67.812C216.64 67.6975 220.708 63.5516 220.708 58.4735C220.708 53.4944 216.786 49.4215 211.786 49.1923C209 49.062 206.802 46.76 206.802 43.9683C206.802 43.9006 206.802 43.8381 206.807 43.7652C206.739 38.6767 202.578 34.5569 197.468 34.5569C194.823 34.5569 192.37 35.6716 190.557 37.6924C188.573 39.8954 184.755 39.8954 182.776 37.6924C180.963 35.6715 178.51 34.5569 175.87 34.5569C170.771 34.5569 166.62 38.6558 166.526 43.7236C166.531 43.8121 166.531 43.8902 166.531 43.9684C166.531 46.7653 164.333 49.0674 161.541 49.1924C156.536 49.4214 152.62 53.4996 152.62 58.4736C152.62 63.5517 156.692 67.6923 161.745 67.8121C161.911 67.8017 162.083 67.7913 162.219 67.7913L176.224 67.8173C179.109 67.8225 181.443 70.161 181.443 73.0465ZM238.932 62.7958C238.932 33.9785 215.484 10.5305 186.667 10.5305C157.849 10.5305 134.401 33.9785 134.396 62.7958C134.396 86.1505 149.801 105.973 170.984 112.651V78.2545L162.463 78.2389C162.286 78.2545 162.104 78.2649 161.963 78.2649C151.046 78.2649 142.166 69.3843 142.166 58.4676C142.166 49.4415 148.208 41.8112 156.567 39.4623C158.583 30.6712 166.469 24.0983 175.864 24.0983C179.719 24.0983 183.469 25.2493 186.661 27.3535C189.859 25.2493 193.609 24.0983 197.463 24.0983C206.854 24.0983 214.74 30.6705 216.755 39.4623C225.121 41.8063 231.162 49.4416 231.162 58.4676C231.162 69.3847 222.281 78.2649 211.365 78.2649C211.224 78.2649 211.037 78.2545 210.86 78.2389L202.344 78.2545V112.651C223.525 105.973 238.932 86.1505 238.932 62.7958ZM353.197 311.308L370.547 333.48L370.545 333.489C371.978 335.317 372.764 337.603 372.78 339.931V392.519C372.78 400.42 366.353 406.847 358.457 406.847C351.457 406.847 345.519 401.847 344.337 394.957L339.832 368.779C339.743 368.29 339.452 367.998 339.222 367.847C338.993 367.696 338.603 367.535 338.123 367.649C337.478 367.795 337.024 368.363 337.024 369.024V374.665C337.024 382.014 331.04 387.998 323.691 387.998C316.342 387.998 310.363 382.014 310.363 374.665V340.201C310.363 339.383 310.165 338.56 309.79 337.826L283.41 286.023H283.082V285.383L264.213 248.325L259.968 326.752L298.973 595.632L333.118 609.924C337.025 611.559 339.54 615.351 339.54 619.57V632.164C339.54 637.924 334.848 642.617 329.087 642.617H254.009C246.598 642.617 240.306 637.565 238.697 630.33L192.629 422.357C192.003 419.539 189.55 417.576 186.665 417.576C183.774 417.576 181.326 419.539 180.701 422.357L134.633 630.317C133.029 637.556 126.733 642.609 119.321 642.609H44.248C38.4824 642.609 33.795 637.916 33.795 632.156V619.562C33.795 615.343 36.3106 611.557 40.2064 609.921L74.3571 595.624L113.368 326.744L109.118 248.317L63.5445 337.822C63.1695 338.552 62.9767 339.369 62.9767 340.192V374.656C62.9767 382.005 56.9975 387.99 49.6486 387.99C42.2997 387.99 36.3205 382.005 36.3205 374.656V369.016C36.3205 368.349 35.8674 367.781 35.2215 367.635C34.7319 367.526 34.3569 367.687 34.1226 367.838C33.8934 367.995 33.5965 368.281 33.5132 368.771L29.008 394.948C27.815 401.839 21.8828 406.839 14.888 406.839C6.99238 406.839 0.565308 400.412 0.565308 392.511V339.923C0.565308 337.595 1.35704 335.308 2.78931 333.48L20.1387 311.308L70.056 188.344C82.3426 158.073 111.389 138.516 144.056 138.516H229.285C261.952 138.516 290.994 158.079 303.28 188.344L353.197 311.308ZM312.337 238.464H298.359L330.004 304.959H339.332L312.337 238.464ZM308.099 228.011L293.588 192.271C282.916 165.963 257.672 148.969 229.276 148.969H202.344V167.333H234.797C252.844 167.333 269.515 177.864 277.276 194.161L293.385 228.011H308.099ZM191.895 359.488V148.968H181.436V359.488C181.436 362.373 183.785 364.717 186.665 364.717C189.551 364.717 191.895 362.373 191.895 359.488ZM144.056 148.968C115.665 148.968 90.4209 165.964 79.7438 192.271L65.2332 228.009H81.3532L97.4625 194.16C105.223 177.863 121.895 167.332 139.941 167.332H170.988V148.968H144.056ZM33.9989 304.964H44.7385L76.3843 238.469H60.9936L33.9989 304.964ZM23.2184 366.985C23.7652 363.797 25.6298 360.933 28.3225 359.136C28.885 358.761 29.4894 358.47 30.1092 358.194V339.246C30.1092 336.928 30.6352 334.6 31.6352 332.507L39.7707 315.408H29.729C29.3749 316.236 28.9322 317.033 28.3697 317.752L11.0257 339.913V392.501C11.0257 394.641 12.76 396.376 14.8954 396.376C16.7861 396.376 18.3903 395.027 18.7132 393.162L23.2184 366.985ZM52.5262 340.182C52.5262 337.708 53.1201 335.245 54.2398 333.057L78.2032 286.01H65.3386L41.068 337.01C40.7347 337.708 40.5576 338.484 40.5576 339.255V358.61C44.318 360.636 46.7764 364.542 46.7764 369.006V374.646C46.7764 376.235 48.068 377.527 49.6513 377.527C51.2346 377.527 52.5262 376.235 52.5262 374.646V340.182ZM114.37 223.489C116.682 223.979 118.38 225.958 118.505 228.323L123.842 326.676C123.858 327.02 123.842 327.364 123.795 327.707L107.254 441.729H130.577L135.858 412.281C138.15 399.505 144.785 387.754 154.546 379.202L171.765 364.109C171.306 362.64 170.989 361.109 170.989 359.489V322.801L144.353 349.437L136.962 342.046L170.989 308.02V268.036L144.353 294.672L136.962 287.281L170.989 253.254V213.265L144.353 239.901L136.962 232.51L170.989 198.484V177.786H139.942C125.906 177.786 112.932 185.978 106.901 198.65L70.3072 275.552H83.5154L108.63 226.229C109.703 224.125 112.068 223 114.37 223.489ZM88.8804 568.363H107.87L128.704 452.191H105.735L88.8804 568.363ZM78.4057 605.248L44.255 619.545L44.2603 632.138H96.4376L106 578.815H87.3641L84.7079 597.107C84.1869 600.717 81.7702 603.842 78.4057 605.248ZM119.328 632.139C121.802 632.139 123.901 630.457 124.432 628.045L149.36 515.503H127.97L107.052 632.139H119.328ZM170.495 420.078C172.188 412.437 178.839 407.099 186.667 407.099H186.67C194.503 407.099 201.154 412.442 202.831 420.078L221.654 505.047H244.305L228.002 414.135C226.127 403.682 220.705 394.072 212.715 387.067L195.767 372.207C193.194 374.056 190.064 375.171 186.663 375.171C183.46 375.171 180.486 374.197 178.002 372.541L161.434 387.067C153.449 394.067 148.017 403.682 146.142 414.135L129.839 505.047H151.672L170.495 420.078ZM266.287 568.365H284.459L267.61 452.193H245.454L266.287 568.365ZM223.975 515.507L248.902 628.048C249.438 630.454 251.538 632.143 254.007 632.143H267.1L246.183 515.507H223.975ZM329.083 619.548L294.938 605.256C291.573 603.85 289.156 600.731 288.63 597.116L285.974 578.819H268.157L277.719 632.142H329.083V619.548ZM254.829 228.329C254.959 225.965 256.652 223.986 258.964 223.496L258.963 223.497C261.296 223.017 263.629 224.132 264.713 226.241L289.827 275.564H304.437L286.786 238.476H286.64V238.174L267.837 198.663C261.801 185.992 248.837 177.799 234.801 177.799H202.348V198.497L236.375 232.523L228.984 239.914L202.348 213.278V253.267L236.375 287.294L228.984 294.685L202.348 268.049V308.033L236.375 342.059L228.984 349.45L202.348 322.814V359.502C202.348 360.913 202.098 362.257 201.749 363.559L219.609 379.221C229.375 387.777 236.011 399.527 238.297 412.303L243.578 441.746H266.089L249.548 327.725C249.496 327.381 249.48 327.037 249.501 326.693L254.829 228.329ZM326.563 374.657V369.016L326.562 369.015C326.562 364.009 329.63 359.692 334.182 357.957V339.26C334.182 338.489 334.01 337.708 333.671 337.005L309.406 286.015H295.141L319.105 333.078C320.214 335.276 320.808 337.734 320.808 340.193V374.657C320.808 376.245 322.099 377.537 323.683 377.537C325.271 377.537 326.563 376.245 326.563 374.657ZM358.443 396.396C360.578 396.396 362.312 394.662 362.312 392.521L362.313 339.938L344.969 317.766C344.417 317.062 343.974 316.271 343.609 315.432H334.984L343.12 332.531C344.115 334.635 344.635 336.963 344.635 339.27V358.953C344.69 358.985 344.746 359.012 344.802 359.039C344.873 359.073 344.943 359.107 345.01 359.151C347.703 360.948 349.568 363.807 350.12 367L354.625 393.183C354.948 395.042 356.547 396.396 358.443 396.396Z" fill="#1D1D1D"/>
</svg>
