<svg width="391" height="391" viewBox="0 0 391 391" fill="none" xmlns="http://www.w3.org/2000/svg">
<path d="M137.147 32.8933C190.335 13.7427 249.439 22.336 294.893 54.1907L283.768 54.1959C277.586 54.1959 272.576 59.2115 272.576 65.3937C272.576 71.5812 277.591 76.5916 283.784 76.5916L325.596 76.5864C331.778 76.5864 336.789 71.5708 336.789 65.3885L336.794 21.5085C336.794 15.3263 331.778 10.3107 325.596 10.3107C319.414 10.3107 314.398 15.3263 314.398 21.5085L314.377 40.8005C262.232 0.86853 192.273 -10.7621 129.551 11.8219C80.5398 29.4725 41.3318 65.1659 19.1545 112.306C-3.02816 159.442 -5.50682 212.405 12.1493 261.426C13.79 265.988 18.1024 268.827 22.6753 268.827C23.9461 268.827 25.2222 268.619 26.4774 268.16C32.2952 266.072 35.316 259.639 33.2223 253.822C17.5863 210.442 19.7902 163.567 39.4201 121.832C59.0601 80.1189 93.7588 48.5256 137.139 32.9003L137.147 32.8933ZM379.16 129.216C377.061 123.398 370.639 120.377 364.821 122.482C359.004 124.57 355.983 131.002 358.087 136.82C373.723 180.2 371.519 227.075 351.889 268.799C332.258 310.528 297.572 342.116 254.181 357.742C201.056 376.878 142.03 368.299 96.5944 336.548H107.443C113.631 336.548 118.641 331.533 118.641 325.35C118.641 319.168 113.631 314.153 107.443 314.153H65.6367C59.4492 314.153 54.4388 319.168 54.4388 325.35L54.4336 369.225C54.4336 375.407 59.4492 380.423 65.6315 380.423C71.8137 380.423 76.8293 375.407 76.8293 369.225L76.8345 349.87C111.209 376.198 153.313 390.256 196.032 390.256C218.125 390.256 240.371 386.516 261.761 378.808C310.772 361.157 349.985 325.464 372.157 278.329C394.329 231.184 396.813 178.231 379.157 129.209L379.16 129.216ZM203.16 76.2427C198.946 72.5031 192.618 72.4405 188.363 76.1541C184.748 79.3 99.7693 153.873 99.7693 214.701C99.7693 267.586 142.805 310.618 195.717 310.618C248.581 310.618 291.587 267.587 291.587 214.701C291.581 155.742 206.759 79.4608 203.16 76.2341V76.2427ZM195.707 288.216C155.15 288.216 122.16 255.237 122.16 214.7C122.16 176.727 169.827 124.055 195.619 99.7933C221.411 124.523 269.182 177.908 269.182 214.7C269.182 255.231 236.222 288.216 195.707 288.216ZM159.144 214.689C159.144 208.507 154.134 203.491 147.946 203.491C141.764 203.491 136.749 208.507 136.749 214.689C136.749 247.184 163.181 273.616 195.67 273.616C201.857 273.616 206.868 268.6 206.868 262.418C206.868 256.236 201.857 251.22 195.67 251.22C175.534 251.21 159.144 234.824 159.144 214.689Z" fill="black"/>
</svg>
