<svg width="546" height="687" viewBox="0 0 546 687" fill="none" xmlns="http://www.w3.org/2000/svg">
<path d="M1.19891 683.054C2.67811 685.465 5.29785 686.934 8.12079 686.934H108.861C112.835 686.934 116.215 684.059 116.871 680.148L119.132 666.497C119.079 670.544 118.908 674.435 118.626 678.205C118.46 680.455 119.241 682.674 120.772 684.336C122.303 685.997 124.46 686.935 126.72 686.935H416.187C420.426 686.935 423.942 683.679 424.28 679.45L425.01 670.054L426.807 680.221C427.484 684.101 430.854 686.929 434.796 686.929H536.952C539.911 686.929 542.629 685.325 544.051 682.731C545.478 680.153 545.395 676.992 543.817 674.487C540.447 669.127 537.181 663.549 534.114 657.841C501.27 597.237 490.723 525.544 502.77 444.775C512.155 382.149 491.999 342.692 440.598 323.988C415.603 316.8 372.056 301.509 361.655 291.113C333.906 263.171 340.582 216.952 349.504 179.807C365.239 114.5 374.171 36.2066 302.931 10.3399C247.613 -9.73872 201.191 1.93368 175.431 23.9279C140.149 52.9546 135.248 108.475 137.144 114.344C140.811 125.886 142.014 134.156 140.821 139.589C133.222 153.975 123.837 170.297 129.259 181.12C134.201 191 145.69 189.094 146.8 189.276L144.05 196.907C142.352 201.657 145.571 204.854 146.342 206.787C142.519 215.167 144.482 222.021 149.394 226.208C148.696 258.599 170.596 268 202.686 259.031C193.988 290.703 152.446 305.973 103.18 321.213C52.6644 336.896 31.279 380.531 39.6284 450.901C49.0868 530.604 36.045 606.048 0.868364 675.128C-0.397263 677.659 -0.272258 680.659 1.19649 683.06L1.19891 683.054ZM55.7829 449.001C48.387 386.651 65.4756 349.918 108.018 336.719C163.711 319.495 210.523 301.793 219.283 259.522C219.674 257.642 219.377 255.683 218.47 253.996L213.819 245.449C205.903 230.949 161.959 268.012 165.861 222.537C166.147 219.271 163.757 215.85 160.809 214.271C161.777 211.584 165.605 208.162 162.73 202.902L160.585 198.969C162.329 191.943 167.777 185.73 162.579 180.224C157.741 175.12 151.569 172.521 143.825 172.932C145.403 152.318 166.393 154.13 153.101 110.963C160.387 23.0204 228.622 0.588348 297.407 25.599C344.178 42.583 355.043 87.5684 333.73 176.012C323.829 217.258 316.746 268.914 350.173 302.57C366.965 319.362 429.105 337.57 435.589 339.419C478.651 355.112 494.906 387.82 486.714 442.378C474.141 526.716 485.287 601.804 519.834 665.551C520.766 667.285 521.704 668.994 522.667 670.697H441.621L429.912 604.26C429.204 600.234 425.813 597.093 421.532 597.562C417.454 597.754 414.157 600.952 413.829 605.03L408.694 670.697H135.294C135.887 651.572 133.95 629.599 129.325 602.463C128.658 598.561 125.278 595.707 121.325 595.707H121.304C117.34 595.718 113.971 598.582 113.314 602.494L101.997 670.696H21.142C53.434 601.942 65.09 527.43 55.7926 449.003L55.7829 449.001Z" fill="black"/>
<path d="M209.972 559.387C222.186 545.481 250.404 538.185 250.404 505.07L250.399 362.017C250.399 352.751 245.706 344.23 237.847 339.219C230.238 334.37 220.842 333.735 212.738 337.495C154.988 364.443 125.754 424.881 123.378 522.255C123.367 522.625 123.388 522.995 123.43 523.365C130.352 585.203 183.842 589.141 209.971 559.386L209.972 559.387ZM219.608 352.214C222.701 350.787 226.181 351.021 229.129 352.922C232.29 354.933 234.17 358.334 234.17 362.021C229.071 493.563 246.477 515.795 217.102 532.875C196.029 545.114 193.285 561.099 171.258 561.099C154.779 559.088 142.982 550.635 139.618 522.093C141.936 431.817 168.102 376.241 219.608 352.214Z" fill="black"/>
<path d="M335.079 559.387C360.532 588.371 414.595 586.377 421.606 523.361C421.647 523.001 421.668 522.632 421.658 522.262C419.293 424.892 390.059 364.448 332.298 337.502C324.214 333.741 314.828 334.361 307.199 339.226C299.334 344.226 294.647 352.752 294.647 362.023V505.063C294.647 538.798 322.084 544.579 335.079 559.38L335.079 559.387ZM310.876 362.027C310.876 358.34 312.756 354.939 315.907 352.928C317.61 351.84 319.47 351.303 321.329 351.303C322.725 351.303 324.11 351.611 325.428 352.225C376.955 376.256 403.122 431.829 405.412 522.105C400.282 565.939 370.715 561.485 373.782 561.111C351.688 561.111 349.375 545.361 327.938 532.887C317.255 526.673 310.87 516.283 310.87 505.075L310.876 362.027Z" fill="black"/>
</svg>
