<svg width="597" height="658" viewBox="0 0 597 658" fill="none" xmlns="http://www.w3.org/2000/svg">
<path d="M363.328 572.172C364.375 572.172 365.416 571.875 366.39 571.349C385.208 560.521 402.604 549.546 418.062 538.646C420.823 536.703 421.495 532.896 419.557 530.057C417.615 527.297 413.807 526.625 410.969 528.563C395.813 539.24 378.786 550.068 360.271 560.667C357.36 562.386 356.313 566.12 358.032 569.031C359.152 571.047 361.24 572.094 363.334 572.094L363.328 572.172Z" fill="black"/>
<path d="M530.435 379.305C530.732 375.946 528.195 372.956 524.836 372.659C521.476 372.362 518.487 374.826 518.19 378.258C516.325 399.013 510.497 418.206 500.269 436.946C498.628 439.93 499.748 443.665 502.732 445.311C503.701 445.831 504.675 446.055 505.644 446.055C507.81 446.055 509.972 444.863 511.019 442.847C522.071 422.612 528.341 401.858 530.357 379.378L530.435 379.305Z" fill="black"/>
<path d="M520.128 189.438C516.769 189.141 513.779 191.605 513.409 194.964C511.545 214.751 509.602 244.918 511.097 276.652C511.248 279.939 513.935 282.553 517.222 282.553H517.519C520.951 282.402 523.565 279.491 523.341 276.132C521.925 245.069 523.789 215.501 525.654 196.162C525.951 192.803 523.487 189.74 520.128 189.443L520.128 189.438Z" fill="black"/>
<path d="M360.795 99.905C357.81 98.3372 354.076 99.53 352.508 102.52C350.94 105.504 352.133 109.238 355.123 110.806C371.175 119.17 388.049 126.858 405.3 133.655C406.045 133.952 406.795 134.103 407.54 134.103C410.003 134.103 412.321 132.608 413.217 130.223C414.488 127.087 412.92 123.504 409.784 122.233C392.91 115.587 376.41 108.119 360.806 99.9106L360.795 99.905Z" fill="black"/>
<path d="M569.928 381.185C566.569 380.664 563.433 382.977 562.907 386.336C546.704 491.841 457.85 578.683 298.814 644.389C139.774 578.681 50.8405 491.843 34.7205 386.336C34.1996 382.977 31.0642 380.659 27.6996 381.185C24.3403 381.706 22.0226 384.841 22.5486 388.206C39.4966 498.79 131.637 589.139 296.429 656.779H296.58C296.877 656.852 297.1 656.93 297.324 657.003H297.621C297.918 657.003 298.293 657.076 298.668 657.076C298.668 657.076 299.34 657.076 299.715 657.003H300.012C300.309 657.003 300.533 656.852 300.757 656.779H300.908C465.694 589.134 557.841 498.859 574.788 388.206C575.309 384.846 572.996 381.711 569.637 381.185H569.928Z" fill="black"/>
<path d="M231.315 571.345C232.283 571.866 233.33 572.168 234.377 572.168C236.544 572.168 238.559 571.048 239.679 569.105C241.398 566.194 240.351 562.387 237.44 560.741C218.924 550.137 201.898 539.314 186.742 528.637C183.982 526.694 180.097 527.366 178.154 530.132C176.211 532.892 176.883 536.778 179.649 538.72C195.107 549.621 212.503 560.595 231.321 571.423L231.315 571.345Z" fill="black"/>
<path d="M91.9813 445.985C92.95 445.985 93.9969 445.761 94.8928 445.24C97.8772 443.6 98.9969 439.865 97.3564 436.876C87.2001 418.136 81.3043 398.944 79.435 378.188C79.1381 374.828 76.1486 372.287 72.7892 372.589C69.4298 372.886 66.8881 375.875 67.1902 379.235C69.2058 401.708 75.5547 422.469 86.5289 442.704C87.6487 444.72 89.7372 445.912 91.9038 445.912L91.9813 445.985Z" fill="black"/>
<path d="M80.1146 282.545H80.4115C83.6979 282.545 86.3855 279.93 86.5365 276.644C87.9532 244.909 86.0886 214.743 84.224 194.956C83.9271 191.597 80.9376 189.133 77.5052 189.43C74.1459 189.727 71.6823 192.716 71.9792 196.149C73.8437 215.487 75.7136 245.127 74.2917 276.118C74.1407 279.477 76.7553 282.389 80.1147 282.54L80.1146 282.545Z" fill="black"/>
<path d="M190.101 134.105C190.846 134.105 191.596 133.954 192.341 133.657C209.664 126.86 226.538 119.173 242.518 110.808C245.503 109.24 246.701 105.506 245.133 102.521C243.565 99.5369 239.831 98.3391 236.846 99.9068C221.242 108.12 204.742 115.589 187.868 122.229C184.732 123.5 183.165 127.011 184.435 130.219C185.404 132.61 187.722 134.099 190.113 134.099L190.101 134.105Z" fill="black"/>
<path d="M554.101 281.945C539.913 281.945 526.7 289.039 518.935 300.762H476.675C472.492 268.956 460.024 239.085 440.237 213.778L456.816 197.2C469.509 199.59 482.728 195.632 491.983 186.372C507.363 170.992 507.363 146.054 491.983 130.669C476.603 115.362 451.665 115.362 436.28 130.669C427.02 139.929 423.066 153.142 425.452 165.836L408.873 182.414C383.561 162.628 353.696 150.086 321.961 145.977V103.789C333.685 95.9503 340.778 82.8102 340.778 68.5435C340.778 55.8508 335.18 44.5022 326.294 36.7368C366.018 64.8875 444.268 107.597 569.708 124.472C566.421 145.753 556.271 215.341 556.942 258.872C556.942 262.231 559.781 264.918 563.067 264.918H563.14C566.572 264.918 569.265 262.08 569.187 258.648C568.364 208.997 582.624 121.034 582.775 120.141C583.072 118.5 582.624 116.782 581.655 115.511C580.687 114.167 579.192 113.271 577.473 113.12C478.238 100.651 408.953 71.0054 368.326 48.4587C324.274 23.9694 303.441 2.16671 303.217 1.94271C303.217 1.94271 303.144 1.8698 303.066 1.79168C303.066 1.79168 302.993 1.71876 302.915 1.64064C302.764 1.56772 302.691 1.4896 302.54 1.34376C302.389 1.19272 302.243 1.04688 302.092 0.968755C301.941 0.817715 301.717 0.744795 301.493 0.671875C301.342 0.598959 301.196 0.520837 300.972 0.447917C300.748 0.375001 300.597 0.296873 300.373 0.223953C300.222 0.223953 300.076 0.151039 299.852 0.0729167C299.629 0.0729167 299.405 0.072916 299.181 0H298.66H297.988H297.467C297.243 0 297.019 0.0729177 296.795 0.151042C296.644 0.151042 296.498 0.223956 296.347 0.302078C296.123 0.374996 295.899 0.453118 295.748 0.598958C295.597 0.671874 295.451 0.750002 295.3 0.822922C295.076 0.973962 294.925 1.1198 294.701 1.27084C294.629 1.34375 294.477 1.42188 294.405 1.4948C294.405 1.4948 294.405 1.56772 294.332 1.64584L294.181 1.79688C293.358 2.69272 209.806 89.0835 19.9273 112.974C18.2866 113.198 16.7918 114.094 15.745 115.365C14.7763 116.709 14.3283 118.349 14.6252 119.995C14.7763 120.891 28.9639 208.776 28.2132 258.502C28.2132 261.934 30.8278 264.7 34.2602 264.773H34.3331C37.6924 264.773 40.38 262.085 40.4581 258.726C41.13 215.195 30.9737 145.606 27.6925 124.326C149.547 107.899 226.826 67.1323 267.599 39.055C260.281 46.6695 255.729 56.9763 255.729 68.399C255.729 82.587 262.823 95.8004 274.547 103.644V145.832C242.74 150.015 212.948 162.483 187.563 182.27L170.984 165.691C173.448 152.998 169.416 139.779 160.156 130.524C144.776 115.218 119.839 115.218 104.531 130.524C89.1507 145.904 89.1507 170.842 104.531 186.227C113.791 195.487 127.004 199.441 139.697 197.055L156.276 213.634C136.489 238.946 123.948 268.811 119.839 300.618H77.5787C69.7401 288.894 56.6 281.8 42.412 281.8C19.0427 281.8 0 300.842 0 324.212C0 347.582 19.0413 366.551 42.412 366.551C56.6 366.551 69.74 359.457 77.5787 347.734H119.839C124.021 379.54 136.489 409.411 156.276 434.718L139.697 451.296C126.932 448.906 113.713 452.864 104.531 462.125C89.1507 477.505 89.1507 502.442 104.531 517.827C119.837 533.134 144.848 533.134 160.156 517.827C169.416 508.567 173.448 495.354 170.984 482.661L187.563 466.082C212.875 485.869 242.74 498.337 274.547 502.519V544.707C262.823 552.546 255.729 565.686 255.729 579.953C255.729 603.322 274.771 622.291 298.141 622.291C321.511 622.291 340.48 603.25 340.48 579.953C340.48 565.765 333.386 552.551 321.663 544.707V502.519C353.397 498.337 383.261 485.869 408.575 466.082L425.153 482.661C422.763 495.353 426.721 508.573 435.982 517.827C451.362 533.134 476.299 533.134 491.684 517.827C507.064 502.447 507.064 477.51 491.684 462.125C482.424 452.864 469.211 448.911 456.518 451.296L439.939 434.718C459.726 409.406 472.267 379.54 476.376 347.734H518.636C526.475 359.458 539.615 366.551 553.803 366.551C577.172 366.551 596.142 347.51 596.142 324.212C596.142 300.915 577.178 281.8 553.803 281.8L554.101 281.945ZM298.821 14.785C302.925 18.6653 309.946 24.7172 319.952 32.181C313.603 28.4466 306.291 26.207 298.373 26.207C291.8 26.207 285.53 27.7747 280.004 30.4622C288.816 23.8163 295.015 18.2903 298.821 14.7795V14.785ZM554.035 354.438C543.061 354.438 532.977 348.464 527.675 338.834C526.555 336.892 524.539 335.626 522.3 335.626H471.154C468.019 335.626 465.331 338.017 465.029 341.152C461.743 374.381 448.603 405.589 427.175 431.349C425.159 433.813 425.31 437.396 427.55 439.636L450.399 462.485C451.967 464.053 454.279 464.652 456.446 464.053C465.93 461.292 476.159 463.902 483.175 470.923C493.701 481.449 493.701 498.699 483.175 509.225C472.649 519.751 455.399 519.751 444.873 509.225C437.852 502.283 435.242 491.975 438.003 482.496C438.602 480.329 438.003 478.017 436.435 476.449L413.586 453.6C412.393 452.407 410.825 451.808 409.258 451.808C407.841 451.808 406.497 452.256 405.299 453.225C379.539 474.651 348.33 487.719 315.102 491.079C311.966 491.376 309.576 493.991 309.576 497.204V548.35C309.576 550.589 310.769 552.678 312.711 553.725C322.342 559.027 328.315 569.105 328.315 580.085C328.315 596.663 314.799 610.173 298.227 610.173C281.649 610.173 268.139 596.657 268.139 580.085C268.139 569.111 274.113 558.954 283.743 553.725C285.686 552.605 286.952 550.589 286.952 548.35V497.204C286.952 494.069 284.561 491.381 281.426 491.079C248.196 487.793 216.988 474.653 191.228 453.225C188.765 451.209 185.181 451.36 182.942 453.6L160.093 476.449C158.525 478.017 157.926 480.329 158.525 482.496C161.285 491.98 158.676 502.209 151.655 509.225C141.129 519.751 123.952 519.751 113.352 509.225C102.826 498.699 102.826 481.523 113.352 470.923C120.295 463.98 130.603 461.292 140.082 464.053C142.248 464.652 144.561 464.053 146.129 462.485L169.05 439.636C171.29 437.396 171.441 433.813 169.425 431.349C147.998 405.589 134.93 374.38 131.57 341.152C131.273 338.017 128.586 335.626 125.445 335.626H74.2999C72.0603 335.626 69.9718 336.819 68.925 338.834C63.6229 348.465 53.545 354.438 42.565 354.438C25.9863 354.438 12.477 340.922 12.477 324.35C12.477 307.772 25.993 294.262 42.565 294.262C53.539 294.262 63.6223 300.236 68.925 309.866C70.0448 311.809 72.0605 313.075 74.2999 313.075H125.445C128.581 313.075 131.268 310.684 131.57 307.549C134.857 274.319 147.997 243.111 169.425 217.351C171.441 214.888 171.29 211.304 169.05 209.065L146.129 186.215C144.561 184.648 142.248 184.049 140.082 184.648C130.597 187.408 120.368 184.799 113.352 177.778C102.826 167.252 102.826 150.075 113.352 139.475C123.878 128.949 141.055 128.949 151.655 139.475C158.598 146.418 161.285 156.726 158.525 166.205C157.926 168.371 158.525 170.684 160.093 172.252L182.942 195.101C185.181 197.341 188.765 197.492 191.228 195.476C216.988 174.049 248.198 160.981 281.426 157.621C284.561 157.324 286.952 154.71 286.952 151.496V100.351C286.952 98.1113 285.759 96.0227 283.743 94.9759C274.113 89.6738 268.139 79.5959 268.139 68.5439C268.139 51.9653 281.655 38.4559 298.227 38.4559C314.806 38.4559 328.315 51.9719 328.315 68.5439C328.315 79.5179 322.341 89.6746 312.711 94.9759C310.769 96.0228 309.576 98.1114 309.576 100.351V151.496C309.576 154.632 311.967 157.319 315.102 157.621C348.331 160.908 379.539 174.048 405.299 195.476C407.763 197.492 411.346 197.34 413.586 195.101L436.435 172.252C438.003 170.684 438.602 168.371 438.003 166.205C435.242 156.72 437.852 146.491 444.872 139.475C455.398 128.949 472.575 128.949 483.175 139.475C493.701 150.001 493.701 167.178 483.175 177.778C476.154 184.721 465.924 187.408 456.446 184.648C454.279 184.049 451.967 184.648 450.399 186.215L427.549 209.065C425.31 211.304 425.159 214.888 427.174 217.351C448.601 243.111 461.669 274.321 465.029 307.549C465.326 310.684 467.941 313.075 471.154 313.075H522.3C524.539 313.075 526.628 311.882 527.674 309.866C532.977 300.236 543.054 294.262 554.034 294.262C570.613 294.262 584.122 307.778 584.122 324.35C584.122 340.929 570.607 354.438 554.035 354.438Z" fill="black"/>
<path d="M358.181 305.545C329.66 305.545 306.436 328.764 306.436 357.29C306.436 385.812 329.655 409.036 358.181 409.036C386.703 409.036 409.927 385.817 409.927 357.29C409.927 328.769 386.708 305.545 358.181 305.545ZM358.181 396.712C336.452 396.712 318.76 379.014 318.76 357.29C318.76 335.561 336.457 317.869 358.181 317.869C379.911 317.869 397.603 335.566 397.603 357.29C397.603 379.02 379.905 396.712 358.181 396.712Z" fill="black"/>
<path d="M271.115 357.278C271.115 337.418 254.912 321.216 235.052 321.216C215.192 321.216 198.989 337.418 198.989 357.278C198.989 377.138 215.192 393.341 235.052 393.341C254.912 393.341 271.115 377.138 271.115 357.278ZM211.235 357.278C211.235 344.138 221.912 333.461 235.052 333.461C248.192 333.461 258.797 344.138 258.797 357.278C258.797 370.419 248.12 381.096 235.052 381.096C221.984 381.096 211.235 370.419 211.235 357.278Z" fill="black"/>
<path d="M294.941 275.078C314.801 275.078 331.004 258.876 331.004 239.016C331.004 219.156 314.801 202.953 294.941 202.953C275.081 202.953 258.879 219.156 258.879 239.016C258.879 258.876 275.081 275.078 294.941 275.078ZM294.941 215.198C308.082 215.198 318.759 225.875 318.759 239.016C318.759 252.156 308.082 262.833 294.941 262.833C281.801 262.833 271.124 252.156 271.124 239.016C271.124 225.875 281.801 215.198 294.941 215.198Z" fill="black"/>
<path d="M361.168 208.252C358.184 206.611 354.449 207.731 352.803 210.715C351.236 213.7 352.283 217.434 355.267 219.08C383.491 234.386 404.694 260.82 413.507 291.58C414.252 294.267 416.715 296.059 419.408 296.059C419.929 296.059 420.528 295.986 421.049 295.835C424.335 294.939 426.2 291.507 425.304 288.293C415.674 254.392 392.225 225.2 361.091 208.324L361.168 208.252Z" fill="black"/>
<path d="M332.568 439.038C321.516 442.325 310.021 444.044 298.371 444.044C277.168 444.044 256.335 438.445 238.116 427.768C235.204 426.049 231.397 427.023 229.679 429.934C227.96 432.846 228.934 436.653 231.918 438.372C252.001 450.096 275.001 456.293 298.371 456.293C311.215 456.293 323.907 454.428 336.079 450.84C339.366 449.871 341.23 446.434 340.184 443.147C339.215 439.861 335.777 438.069 332.569 439.043L332.568 439.038Z" fill="black"/>
<path d="M220.488 233.492C223.024 231.252 223.327 227.445 221.16 224.83C218.993 222.216 215.113 221.992 212.498 224.158C183.228 249.32 166.43 285.836 166.43 324.361C166.43 327.72 169.191 330.486 172.555 330.486C175.915 330.486 178.681 327.726 178.681 324.361C178.681 289.418 193.915 256.268 220.493 233.492L220.488 233.492Z" fill="black"/>
</svg>
